<svg width="114" height="65" viewBox="0 0 114 65" version="1.1" xmlns="http://www.w3.org/2000/svg" xmlns:xlink="http://www.w3.org/1999/xlink">
<g id="Canvas" fill="none">
<g id="adidas">
<g id="Group">
<g id="Vector">
<path d="M 42.3657 34.1041L 60.9118 65L 42.3657 65L 31.1231 65L 13.4145 35.481L 1.57037e-06 13.1448L 13.4145 5.0819L 21.8607 2.70753e-08L 42.3657 34.1041Z" transform="translate(52.6501 0)" fill="black"/>
</g>
<g id="Vector_2">
<path d="M 39.7538 29.7248L 47.0217 41.876L 39.7538 41.876L 17.2543 41.876L 0.723957 14.3656L 1.21839e-07 13.1661L 0.723957 12.7402L 21.8891 -7.03957e-07L 39.7538 29.7248Z" transform="translate(26.3109 23.124)" fill="black"/>
</g>
<g id="Vector_3">
<path d="M 27.0348 8.55973L 33.1317 18.7235L 27.0348 18.7235L 3.34298 18.7235L 0 13.1448L 21.882 -1.08301e-07L 27.0348 8.55973Z" transform="translate(0 46.2765)" fill="black"/>
</g>
</g>
</g>
</g>
</svg>

